# xmcd
#
# Track frame offsets:
#	150
#	13152
#	22839
#	31983
#	41248
#	51758
#	63398
#	74544
#	88895
#	98554
#	106212
#	115017
#	128301
#	141767
#	153339
#	165933
#
# Disc length: 2339 seconds
#
# Revision: 1
# Processed by: cddbd v1.5.2PL0 Copyright (c) Steve Scherf et al.
# Submitted via: audiograbber 1.83.01
#
DISCID=c5092110
DTITLE=schoofseggl - super schwoba
DYEAR=2008
DGENRE=Schwäbisches
TTITLE0=Super Schwoba
TTITLE1=Remstal-Lied
TTITLE2=Lohle
TTITLE3=Mir fahrt des Kraut so im Ranza rum
TTITLE4=Kauboi
TTITLE5=Vorna
TTITLE6=Beinoh
TTITLE7=FKK
TTITLE8=Ohr-Gas-Mus
TTITLE9=Moschtxangsverein
TTITLE10=Lernsch immer dazu
TTITLE11=Kehrwoch
TTITLE12=I mog koin Reis
TTITLE13=Vielen Dank
TTITLE14=Super Schwoba ( Karaoke )
TTITLE15=Remstal-Lied ( Karaoke )
EXTD=Schwäbische Mundart and Musik\naus Stetten im Remstal
EXTT0=
EXTT1=
EXTT2=
EXTT3=
EXTT4=
EXTT5=
EXTT6=
EXTT7=
EXTT8=
EXTT9=
EXTT10=
EXTT11=
EXTT12=
EXTT13=
EXTT14=
EXTT15=
PLAYORDER=
